<?xml version="1.0" encoding="UTF-8"?>
<svg id="Layer_1" data-name="Layer 1" xmlns="http://www.w3.org/2000/svg" viewBox="0 0 639.5 478.44">
  <defs>
    <style>
      .cls-1 {
        fill: #010101;
      }
    </style>
  </defs>
  <rect class="cls-1" x="323.15" y="88.44" width="34.02" height="306.14"/>
  <rect class="cls-1" x="255.12" y="88.44" width="68.03" height="34.02"/>
  <rect class="cls-1" x="255.12" y="360.57" width="68.03" height="34.02"/>
  <rect class="cls-1" x="221.1" y="326.55" width="34.02" height="68.03"/>
  <rect class="cls-1" x="221.1" y="88.44" width="34.02" height="68.03"/>
  <rect class="cls-1" x="187.09" y="122.46" width="34.02" height="34.02"/>
  <rect class="cls-1" x="187.09" y="326.55" width="34.02" height="34.02"/>
  <rect class="cls-1" x="527.22" y="156.47" width="34.04" height="34.02"/>
  <rect class="cls-1" x="493.2" y="190.49" width="34.04" height="34.02"/>
  <rect class="cls-1" x="459.21" y="224.5" width="34.02" height="34.02"/>
  <rect class="cls-1" x="493.23" y="258.52" width="34.02" height="34.02"/>
  <rect class="cls-1" x="527.24" y="292.54" width="34.02" height="34.02"/>
  <rect class="cls-1" x="391.16" y="156.47" width="34.04" height="34.02"/>
  <rect class="cls-1" x="425.17" y="190.49" width="34.04" height="34.02"/>
  <rect class="cls-1" x="425.17" y="258.52" width="34.02" height="34.02"/>
  <rect class="cls-1" x="391.16" y="292.54" width="34.02" height="34.02"/>
  <rect class="cls-1" x="153.07" y="156.47" width="34.02" height="34.02"/>
  <rect class="cls-1" x="119.06" y="190.49" width="34.02" height="102.05"/>
  <rect class="cls-1" x="153.07" y="292.53" width="34.02" height="34.02"/>
</svg>