<?xml version="1.0" encoding="UTF-8"?>
<svg id="Layer_1" data-name="Layer 1" xmlns="http://www.w3.org/2000/svg" viewBox="0 0 639.5 478.44">
  <defs>
    <style>
      .cls-1 {
        fill: #010101;
      }
    </style>
  </defs>
  <g>
    <rect class="cls-1" x="443" y="51.02" width="34.38" height="34.02"/>
    <polygon class="cls-1" points="545.41 119.06 511.4 119.06 511.4 85.04 477.38 85.04 477.38 119.06 409.01 119.06 409.01 153.07 477.38 153.07 477.38 187.09 511.4 187.09 511.4 153.07 545.41 153.07 545.41 119.06"/>
    <rect class="cls-1" x="443" y="187.09" width="34.38" height="34.02"/>
  </g>
  <g>
    <rect class="cls-1" x="443" y="255.12" width="34.38" height="34.02"/>
    <polygon class="cls-1" points="545.41 323.15 511.4 323.15 511.4 289.13 477.38 289.13 477.38 323.15 409.01 323.15 409.01 357.17 477.38 357.17 477.38 391.18 511.4 391.18 511.4 357.17 545.41 357.17 545.41 323.15"/>
    <rect class="cls-1" x="443" y="391.18" width="34.38" height="34.02"/>
  </g>
  <rect class="cls-1" x="374.97" y="153.07" width="34.04" height="34.02"/>
  <rect class="cls-1" x="340.95" y="187.09" width="34.04" height="34.02"/>
  <rect class="cls-1" x="306.96" y="221.1" width="34.02" height="34.02"/>
  <rect class="cls-1" x="340.98" y="255.12" width="34.02" height="34.02"/>
  <rect class="cls-1" x="374.99" y="289.13" width="34.02" height="34.02"/>
  <rect class="cls-1" x="238.9" y="153.07" width="34.04" height="34.02"/>
  <rect class="cls-1" x="272.92" y="187.09" width="34.04" height="34.02"/>
  <rect class="cls-1" x="272.92" y="255.12" width="34.02" height="34.02"/>
  <rect class="cls-1" x="238.9" y="289.13" width="34.02" height="34.02"/>
  <rect class="cls-1" x="136.88" y="323.15" width="102.05" height="34.02"/>
  <rect class="cls-1" x="136.88" y="119.06" width="102.05" height="34.02"/>
</svg>