<?xml version="1.0" encoding="UTF-8"?>
<svg id="Layer_1" data-name="Layer 1" xmlns="http://www.w3.org/2000/svg" viewBox="0 0 639.5 478.44">
  <defs>
    <style>
      .cls-1 {
        fill: #010101;
      }
    </style>
  </defs>
  <rect class="cls-1" x="320.16" y="85.04" width="34.02" height="306.14"/>
  <rect class="cls-1" x="388.19" y="153.07" width="34.02" height="34.02"/>
  <rect class="cls-1" x="388.19" y="289.13" width="34.02" height="34.02"/>
  <rect class="cls-1" x="422.2" y="187.09" width="34.02" height="102.05"/>
  <rect class="cls-1" x="422.2" y="357.17" width="34.02" height="34.02"/>
  <rect class="cls-1" x="422.2" y="85.04" width="34.02" height="34.02"/>
  <rect class="cls-1" x="490.24" y="153.07" width="34.02" height="170.08"/>
  <rect class="cls-1" x="456.22" y="119.06" width="34.02" height="34.02"/>
  <rect class="cls-1" x="456.22" y="323.15" width="34.02" height="34.02"/>
  <rect class="cls-1" x="150.08" y="153.07" width="34.02" height="34.02"/>
  <rect class="cls-1" x="252.13" y="85.04" width="68.03" height="34.02"/>
  <rect class="cls-1" x="252.13" y="357.17" width="68.03" height="34.02"/>
  <rect class="cls-1" x="218.11" y="323.15" width="34.02" height="68.03"/>
  <rect class="cls-1" x="218.11" y="85.04" width="34.02" height="68.03"/>
  <rect class="cls-1" x="184.09" y="119.06" width="34.02" height="34.02"/>
  <rect class="cls-1" x="184.09" y="323.15" width="34.02" height="34.02"/>
  <rect class="cls-1" x="116.06" y="187.09" width="34.02" height="102.05"/>
  <rect class="cls-1" x="150.08" y="289.13" width="34.02" height="34.02"/>
</svg>